<?xml version="1.0" standalone="no"?>
<!DOCTYPE svg PUBLIC "-//W3C//DTD SVG 20010904//EN"
 "http://www.w3.org/TR/2001/REC-SVG-20010904/DTD/svg10.dtd">
<svg version="1.0" xmlns="http://www.w3.org/2000/svg"
 width="640.000000pt" height="640.000000pt" viewBox="0 0 640.000000 640.000000"
 preserveAspectRatio="xMidYMid meet">
<metadata>
Created by potrace 1.16, written by Peter Selinger 2001-2019
</metadata>
<g transform="translate(0.000000,640.000000) scale(0.100000,-0.100000)"
fill="#000000" stroke="none">
<path d="M1400 6390 c773 -3 1387 -8 1365 -12 -22 -4 -65 -11 -95 -17 -30 -5
-99 -21 -153 -35 -54 -14 -108 -26 -120 -26 -29 0 -206 -61 -290 -100 -36 -16
-71 -30 -77 -30 -13 0 -66 -21 -113 -46 -16 -8 -35 -14 -42 -14 -8 0 -18 -6
-22 -12 -12 -19 -30 -29 -163 -92 -40 -19 -96 -57 -123 -83 -10 -10 -25 -17
-33 -15 -8 2 -14 -4 -14 -13 0 -8 -6 -15 -14 -15 -8 0 -17 -7 -20 -16 -4 -10
-13 -13 -26 -9 -20 6 -28 -9 -10 -20 20 -12 10 -27 -15 -23 -17 4 -31 -2 -46
-18 -12 -13 -27 -21 -33 -17 -7 4 -7 1 1 -7 6 -7 9 -20 5 -28 -4 -12 4 -10 29
8 19 13 28 17 22 10 -27 -29 -11 -28 32 2 25 18 45 39 45 48 0 11 10 16 33 17
21 0 64 20 122 55 50 30 101 59 115 63 14 4 41 17 60 29 55 33 150 77 210 97
30 9 95 34 143 54 48 19 118 42 155 50 37 8 92 22 122 30 204 55 372 82 598
96 285 18 595 -11 852 -78 52 -13 133 -33 179 -44 74 -17 230 -71 256 -89 6
-4 35 -15 65 -25 65 -20 151 -59 200 -90 19 -12 46 -26 60 -30 31 -9 160 -84
180 -103 8 -8 29 -21 46 -28 18 -7 65 -38 105 -69 41 -30 79 -55 86 -55 7 0
16 -6 20 -13 4 -7 53 -50 108 -94 98 -79 328 -303 362 -353 15 -22 88 -111
136 -164 9 -11 17 -23 17 -27 0 -5 21 -34 47 -66 26 -32 57 -78 70 -103 13
-25 41 -72 63 -105 41 -61 44 -67 79 -145 12 -25 37 -74 57 -110 19 -36 41
-85 49 -110 7 -25 31 -91 54 -147 43 -107 50 -132 106 -363 41 -173 60 -289
76 -470 18 -201 3 -538 -31 -705 -23 -113 -44 -204 -61 -265 -9 -36 -20 -85
-24 -110 -4 -25 -31 -106 -60 -180 -29 -74 -63 -164 -75 -198 -13 -35 -33 -78
-44 -95 -12 -18 -32 -57 -45 -87 -28 -65 -68 -137 -92 -165 -9 -11 -26 -39
-38 -62 -11 -23 -42 -71 -68 -108 -27 -36 -58 -82 -70 -102 -11 -20 -44 -59
-72 -88 -28 -29 -51 -57 -51 -64 0 -6 -26 -38 -58 -71 -31 -32 -71 -73 -88
-92 -17 -18 -47 -46 -67 -61 -21 -15 -37 -34 -37 -41 0 -14 -62 -66 -79 -66
-14 0 -41 -42 -34 -53 3 -6 1 -7 -5 -3 -6 4 -20 -2 -31 -13 -14 -14 -16 -22
-7 -31 8 -10 7 -12 -7 -7 -20 7 -77 -18 -77 -33 0 -21 46 -80 63 -80 9 0 17 2
17 5 0 9 -40 45 -49 45 -5 0 -11 7 -15 15 -7 20 8 19 25 -1 8 -10 21 -13 37
-9 21 5 23 3 16 -17 -6 -21 -5 -21 10 -9 12 10 14 17 6 25 -16 16 -12 30 11
45 20 12 21 11 17 -7 -4 -16 -1 -18 15 -14 11 3 22 13 24 23 3 10 11 15 17 13
7 -3 19 2 26 11 11 13 10 18 -6 30 -10 8 -14 15 -8 15 5 0 15 -5 21 -11 9 -9
24 0 59 35 27 25 41 46 34 46 -8 0 23 36 69 80 46 43 87 78 90 77 3 -1 28 19
55 45 27 27 53 48 57 48 5 0 9 7 9 15 0 8 5 15 10 15 6 0 10 9 10 19 0 11 17
34 38 53 22 18 52 56 68 83 16 28 51 79 78 115 27 36 55 79 63 95 15 33 21 43
76 127 20 31 37 68 37 81 0 14 7 30 15 37 8 6 17 22 21 33 4 12 17 39 30 59
24 37 42 82 70 170 8 25 20 58 28 72 7 14 28 72 46 129 18 56 38 112 43 124 5
12 7 28 4 36 -3 8 4 45 15 83 11 38 21 83 23 99 2 17 8 46 14 65 13 42 15
1118 2 1134 -5 6 -16 49 -26 95 -9 47 -21 93 -26 103 -6 10 -7 23 -3 29 8 14
-28 134 -72 236 -8 17 -14 36 -14 42 0 7 -9 29 -19 49 -11 21 -23 55 -26 76
-4 21 -23 68 -43 105 -19 36 -45 89 -59 116 -44 93 -84 165 -102 184 -8 9 -25
40 -38 70 -14 30 -30 60 -37 65 -7 6 -38 49 -69 96 -31 47 -74 105 -97 129
-22 24 -48 57 -56 73 -8 16 -29 42 -46 56 -52 46 -78 75 -91 100 -7 14 -21 30
-31 36 -25 14 -76 61 -76 70 0 12 -53 65 -60 61 -5 -3 -38 24 -74 60 -36 36
-69 65 -74 65 -4 0 -26 16 -48 36 -21 20 -84 66 -139 103 -55 36 -104 72 -108
78 -4 7 -14 13 -20 13 -7 0 -46 20 -87 45 -40 25 -112 65 -159 89 -47 23 -95
47 -106 54 -56 31 -125 60 -160 66 -22 4 -44 11 -50 15 -33 25 -313 121 -354
121 -14 1 -62 10 -106 21 -75 19 -105 26 -215 46 -25 4 561 10 1330 13 795 3
22 5 -1830 5 -1892 0 -2629 -2 -1800 -5z"/>
<path d="M3020 6219 c-58 -4 -152 -15 -210 -24 -58 -9 -145 -23 -195 -30 -173
-27 -460 -122 -638 -211 -37 -19 -74 -34 -83 -34 -8 0 -35 -13 -59 -30 -24
-16 -48 -30 -54 -30 -5 0 -23 -11 -39 -25 -16 -13 -49 -33 -74 -44 -24 -10
-51 -25 -59 -33 -8 -8 -43 -33 -77 -57 -47 -31 -61 -46 -53 -54 14 -14 14 -47
1 -47 -5 0 -10 7 -10 15 0 26 -28 28 -56 6 -15 -12 -21 -21 -14 -21 7 0 10 -7
6 -15 -3 -8 -1 -15 3 -15 5 0 11 5 13 11 3 9 10 9 27 -1 36 -18 74 5 66 40 -6
23 -5 24 8 6 11 -15 17 -16 35 -7 11 6 26 17 34 24 20 20 84 57 98 57 6 0 24
9 38 21 38 29 138 86 165 94 12 4 54 22 92 40 124 58 163 75 202 84 21 6 97
30 170 55 73 25 158 49 190 55 158 28 320 52 428 62 148 14 482 6 620 -15 322
-50 344 -55 538 -120 109 -37 206 -71 215 -76 9 -5 58 -27 107 -50 128 -59
221 -108 264 -142 13 -10 29 -18 36 -18 7 0 43 -23 81 -51 38 -28 78 -56 89
-62 88 -47 438 -365 513 -466 15 -20 50 -63 78 -96 28 -33 66 -82 84 -110 19
-27 48 -68 66 -90 17 -22 40 -57 50 -77 33 -64 94 -167 103 -173 5 -3 12 -18
16 -35 3 -16 27 -69 52 -117 70 -137 185 -484 203 -618 13 -88 21 -141 41
-260 9 -53 13 -167 13 -340 -1 -238 -5 -300 -33 -460 -5 -27 -14 -86 -20 -130
-14 -97 -20 -120 -82 -305 -27 -80 -49 -151 -49 -158 0 -7 -23 -58 -51 -115
-28 -56 -57 -119 -65 -139 -7 -21 -32 -70 -56 -109 -24 -39 -51 -88 -62 -107
-20 -40 -105 -163 -119 -173 -4 -3 -17 -23 -28 -44 -11 -21 -39 -57 -61 -81
-23 -24 -50 -58 -61 -76 -11 -18 -40 -53 -66 -79 -25 -26 -59 -61 -76 -78 -16
-17 -61 -61 -100 -97 -38 -36 -82 -76 -97 -90 -15 -14 -26 -33 -26 -42 0 -9
-1 -23 -3 -30 -2 -8 6 -18 19 -23 12 -4 22 -5 22 0 0 4 17 16 38 25 20 10 51
35 67 56 17 22 34 39 40 40 15 0 263 258 308 320 22 30 53 69 70 87 17 18 40
48 51 67 12 19 44 68 71 108 28 40 57 89 66 109 9 20 30 55 47 78 17 23 45 77
62 119 18 42 40 93 51 112 32 61 66 144 77 185 6 22 29 96 52 165 60 182 58
175 75 295 54 368 58 418 52 645 -6 223 -46 539 -88 681 -11 41 -23 85 -26 99
-3 14 -9 30 -13 35 -8 12 -37 99 -56 171 -7 28 -33 91 -58 140 -25 49 -52 108
-60 130 -8 23 -26 60 -40 83 -14 22 -26 44 -26 47 0 4 -11 21 -23 38 -13 17
-29 48 -36 68 -7 20 -19 42 -27 49 -8 6 -44 56 -80 110 -36 54 -83 117 -104
139 -22 23 -40 46 -40 51 0 5 -29 41 -65 79 -36 38 -65 74 -65 80 0 5 -22 26
-49 45 -27 19 -59 50 -72 69 -13 19 -37 42 -54 52 -16 10 -46 35 -65 56 -19
22 -50 49 -70 60 -19 12 -51 36 -70 53 -19 17 -78 59 -130 94 -52 35 -104 71
-115 81 -11 10 -31 21 -45 25 -14 4 -64 31 -112 61 -48 29 -99 56 -115 60 -15
4 -57 22 -93 40 -97 48 -152 72 -185 79 -17 4 -82 24 -145 44 -184 60 -225 70
-410 96 -307 43 -472 51 -700 34z"/>
<path d="M2149 4853 c-63 -36 -159 -90 -214 -120 -55 -31 -118 -66 -140 -78
-136 -76 -216 -121 -260 -145 -27 -14 -77 -41 -110 -59 -73 -40 -123 -91 -240
-247 -49 -65 -101 -133 -115 -150 -14 -17 -33 -42 -42 -55 -65 -92 -193 -258
-255 -332 -117 -140 -108 -142 186 -26 40 16 78 29 83 29 5 0 36 -28 69 -62
57 -61 58 -64 59 -120 0 -55 1 -57 31 -63 31 -7 48 4 49 31 0 6 9 19 20 29 11
10 20 25 20 34 -1 23 -24 51 -43 51 -20 0 -129 109 -121 122 10 16 85 48 126
54 40 6 45 4 68 -28 13 -18 28 -37 32 -43 78 -98 103 -124 136 -143 49 -27 87
-28 152 -3 46 17 50 18 51 3 1 -10 2 -259 3 -556 l1 -538 23 -15 c49 -33 19
-42 -162 -48 -171 -5 -182 0 -178 75 2 30 8 75 14 100 5 25 9 72 9 105 -1 73
-16 89 -78 81 -24 -3 -45 -1 -48 5 -5 7 -11 6 -20 -1 -8 -7 -50 -12 -96 -12
-68 0 -85 3 -96 18 -10 13 -16 15 -24 7 -6 -6 -18 -9 -25 -6 -8 3 -14 1 -14
-5 0 -17 -52 -24 -67 -9 -17 16 -99 12 -122 -6 -14 -12 -12 -78 7 -212 28
-197 39 -364 27 -410 -4 -18 -83 -72 -128 -88 -22 -8 -34 -37 -19 -46 16 -9
2180 -12 2776 -3 l470 7 -33 37 -33 38 -1161 0 c-639 0 -1167 0 -1173 0 -21 0
-23 28 -3 64 10 19 16 43 13 53 -4 13 -3 14 4 5 7 -10 13 -7 27 14 9 14 18 33
19 40 1 7 6 17 11 21 4 4 5 1 1 -7 -4 -8 2 -4 13 10 12 14 24 35 27 48 3 12 9
22 13 22 4 0 15 13 24 30 17 28 37 40 37 22 0 -4 -34 -59 -75 -121 -56 -87
-72 -118 -63 -128 8 -11 222 -13 1149 -13 l1139 0 0 64 c0 49 5 71 23 97 26
40 97 79 143 79 26 0 33 5 36 25 3 14 1 25 -3 25 -5 0 -9 5 -9 10 0 6 8 10 19
10 47 0 46 -15 44 788 -2 674 -4 757 -18 771 -14 14 -113 16 -952 18 -515 1
-938 4 -940 7 -2 2 6 33 18 69 23 64 23 65 5 105 -11 25 -56 75 -117 132 -55
51 -99 100 -99 109 0 10 27 66 60 125 33 59 60 110 60 112 0 2 29 55 65 117
95 166 91 170 -66 80z m1859 -955 c9 -9 12 -167 12 -650 0 -620 -1 -638 -19
-648 -13 -6 -206 -10 -553 -11 -394 0 -527 -3 -510 -11 51 -25 35 -98 -21 -98
-60 0 -78 52 -31 89 l27 21 -536 0 c-474 0 -537 2 -551 16 -14 14 -16 74 -16
514 l0 499 33 17 c17 9 41 25 52 35 11 10 56 48 100 86 44 37 83 73 88 80 4 7
19 26 33 42 l26 31 927 0 c708 0 930 -3 939 -12z m-1561 -1479 c6 -6 9 -18 6
-25 -4 -11 -42 -14 -189 -14 -172 0 -184 1 -184 18 0 10 3 22 7 25 12 12 348
8 360 -4z"/>
<path d="M4445 4594 c-118 -42 -127 -44 -241 -64 -125 -22 -162 -33 -170 -54
-6 -16 25 -76 38 -76 4 0 8 -5 8 -11 0 -6 11 -25 25 -43 14 -18 25 -40 25 -49
0 -9 8 -18 18 -22 20 -7 106 -125 131 -181 10 -21 25 -45 34 -52 8 -7 34 -42
57 -78 50 -76 79 -85 108 -33 54 99 158 257 181 277 59 50 59 50 171 -98 14
-18 40 -49 57 -69 18 -20 33 -41 33 -48 0 -6 3 -13 8 -15 6 -3 90 -105 137
-168 123 -165 200 -266 207 -268 5 -2 13 -13 19 -23 8 -16 5 -26 -18 -53 -25
-30 -66 -93 -67 -106 -1 -3 -22 -42 -49 -87 -26 -45 -47 -85 -47 -88 0 -4 -13
-26 -30 -50 -16 -24 -30 -47 -30 -50 0 -10 -71 -126 -97 -158 -13 -16 -23 -33
-23 -39 0 -6 -26 -57 -59 -112 -32 -56 -70 -124 -84 -152 -22 -44 -34 -55 -84
-78 -32 -15 -71 -34 -88 -43 -39 -20 -147 -135 -137 -145 4 -4 123 -8 265 -8
217 -1 257 -3 257 -16 0 -8 -5 -14 -11 -14 -14 0 -2 -329 12 -346 7 -8 98 -12
309 -13 259 -1 300 1 300 14 0 8 -7 15 -15 15 -8 0 -50 18 -93 39 -123 63
-231 111 -246 111 -22 0 -35 23 -49 91 -27 128 -96 228 -190 275 -26 14 -50
31 -53 39 -3 7 6 31 20 52 14 21 26 43 26 50 0 7 4 13 9 13 5 0 12 14 16 30 4
17 10 30 14 30 5 0 19 21 33 48 39 75 113 202 178 308 33 54 60 103 60 109 0
7 9 20 20 30 11 10 20 23 20 30 0 6 15 37 34 68 19 31 31 57 28 57 -4 0 -2 4
3 8 6 4 16 18 23 31 8 13 22 39 33 58 29 52 24 84 -25 144 -12 14 -32 41 -46
59 -22 30 -101 131 -227 290 -23 30 -46 60 -50 65 -5 6 -19 24 -33 41 -14 17
-38 48 -55 70 -16 21 -66 84 -110 139 -44 55 -100 128 -125 160 -65 86 -109
133 -149 158 -51 31 -129 31 -216 1z m830 -1356 c-12 -40 -57 -138 -64 -138
-3 0 -12 -13 -19 -29 -12 -26 -53 -47 -67 -33 -13 13 -3 61 20 92 14 19 25 38
25 42 0 5 12 26 26 48 21 32 33 40 56 40 26 0 29 -3 23 -22z m-288 -478 c16
-24 4 -59 -34 -104 -14 -17 -32 -46 -40 -63 -11 -28 -18 -33 -48 -33 -43 0
-45 14 -6 67 16 22 32 49 36 62 12 38 49 90 65 91 8 0 21 -9 27 -20z"/>
<path d="M3555 4368 c-2 -7 -5 -19 -7 -27 -2 -8 -24 -19 -48 -25 -58 -14 -84
-55 -74 -116 10 -64 31 -83 95 -84 30 -1 60 2 67 7 13 10 18 210 6 241 -7 19
-33 21 -39 4z"/>
<path d="M2615 4324 c-25 -33 -26 -34 -51 -17 -60 39 -153 -31 -139 -106 4
-19 13 -44 22 -57 19 -30 78 -42 112 -23 29 16 34 29 21 49 -7 12 -12 12 -22
2 -17 -17 -53 -15 -68 3 -11 13 -6 15 36 15 64 0 78 10 72 49 -3 20 -1 30 6
28 6 -2 12 -31 14 -65 2 -52 7 -65 26 -77 40 -27 77 5 41 35 -9 8 -15 30 -15
57 0 30 5 45 15 49 8 4 15 14 15 24 0 10 -7 20 -15 24 -8 3 -15 12 -15 20 0
29 -29 24 -55 -10z"/>
<path d="M2757 4300 c-18 -14 -27 -31 -27 -49 0 -28 13 -39 73 -61 15 -5 27
-14 27 -20 0 -16 -42 -11 -55 7 -17 23 -47 10 -43 -19 4 -29 45 -50 86 -44 44
7 62 22 62 55 0 36 -10 48 -53 66 -20 8 -37 20 -37 25 0 15 21 12 41 -6 20
-18 49 -13 49 8 -2 49 -78 73 -123 38z"/>
<path d="M3081 4299 c-49 -46 -33 -165 24 -181 39 -10 79 -2 100 22 33 36 -5
69 -39 34 -28 -27 -51 -14 -54 32 -4 51 18 76 46 51 9 -8 28 -17 42 -19 18 -2
26 -10 28 -28 6 -59 13 -72 48 -86 45 -19 87 -10 113 21 10 14 22 21 26 17 19
-19 -10 97 -32 126 -24 32 -28 34 -72 27 -33 -4 -51 -14 -65 -32 l-19 -25 -21
27 c-28 35 -95 42 -125 14z"/>
<path d="M3673 4310 c-52 -21 -73 -91 -44 -148 22 -43 59 -60 103 -47 64 20
58 57 -6 49 -34 -5 -44 -3 -49 10 -5 13 2 16 42 16 58 0 76 16 66 59 -11 50
-65 79 -112 61z"/>
<path d="M1337 3432 c-34 -35 -34 -41 2 -78 15 -16 31 -38 35 -49 3 -11 21
-36 39 -55 18 -19 45 -54 61 -78 35 -51 67 -62 104 -35 41 30 56 64 48 104 -8
35 -36 60 -201 175 l-62 43 -26 -27z"/>
<path d="M870 1662 c0 -4 11 -24 24 -43 24 -35 26 -36 108 -43 121 -9 4491 -7
4506 2 15 10 62 73 62 84 0 4 -1057 8 -2350 8 -1292 0 -2350 -3 -2350 -8z"/>
</g>
</svg>
